Coordinates
version=1
nRows=12
nColumns=24
inDegrees=yes

Units are S.I. units (second, meters, Newtons, ...)
Angles are in degrees.

endheader
time	pelvis_tilt	pelvis_list	pelvis_rotation	pelvis_tx	pelvis_ty	pelvis_tz	hip_flexion_r	hip_adduction_r	hip_rotation_r	knee_angle_r	ankle_angle_r	subtalar_angle_r	mtp_angle_r	hip_flexion_l	hip_adduction_l	hip_rotation_l	knee_angle_l	ankle_angle_l	subtalar_angle_l	mtp_angle_l	lumbar_extension	lumbar_bending	lumbar_rotation
      0.91616667	      0.05239124	     -0.23361651	     -0.59267084	     -0.17641304	      0.97652105	      0.30693348	    -11.50533875	      3.82901426	     -6.11796517	    -12.84411182	     16.91566984	     -0.71426986	     -0.43215151	     25.39403726	      1.73259379	     -2.03354411	    -10.82920862	      0.52755291	     -4.13091082	     -2.78853226	     -1.37180179	      4.03730358	      8.03518562
      0.92033333	      0.02238469	     -0.13458738	     -0.61690464	     -0.17036737	      0.97601639	      0.30661771	    -11.44858238	      3.65279392	     -6.05337597	    -13.63823015	     16.91442956	     -0.82100958	     -0.41673589	     25.28411828	      1.92431570	     -1.94884604	    -10.85945220	      0.25412633	     -4.13661996	     -2.68671711	     -1.29288822	      3.92010412	      8.03082062
      0.92450000	     -0.05656810	     -0.06223945	     -0.64689077	     -0.16435871	      0.97548215	      0.30626084	    -11.27439705	      3.49171661	     -6.00869894	    -14.55650514	     16.95661225	     -0.81579829	     -0.32958751	     25.21105487	      2.10647229	     -1.69999085	    -10.91907893	     -0.09109717	     -4.46908492	     -2.30900952	     -1.14795347	      3.85889710	      8.07679209
      0.92866667	     -0.09224638	      0.05910325	     -0.67412438	     -0.15825208	      0.97507686	      0.30595050	    -11.15028148	      3.28938668	     -5.90290807	    -15.46923255	     16.94954328	     -0.95609784	     -0.28758524	     25.09558864	      2.31886950	     -1.57796760	    -11.05786117	     -0.40322839	     -4.50320410	     -2.17813480	     -1.04167876	      3.71784785	      8.05405630
      0.93283333	     -0.17094365	      0.15121915	     -0.70659913	     -0.15219351	      0.97465482	      0.30560731	    -10.91512741	      3.10743059	     -5.80620775	    -16.50048186	     16.93552821	     -1.04026320	     -0.18550309	     25.01351228	      2.51527256	     -1.31115657	    -11.21531738	     -0.77675937	     -4.81704836	     -1.93649243	     -0.88406225	      3.63308448	      8.06099325
      0.93700000	     -0.19737676	      0.28338625	     -0.69495604	     -0.14607973	      0.97430378	      0.30519442	    -10.70741858	      2.86926331	     -5.86348885	    -17.58273204	     16.79475960	     -0.99418209	      1.75616626	     24.90436212	      2.76205737	     -1.09052726	    -11.47287683	     -1.19125046	     -5.13003002	      1.76724547	     -0.79560085	      3.48024251	      8.02273798
      0.94116667	     -0.27376921	      0.38502247	     -0.72661830	     -0.13998180	      0.97398345	      0.30487534	    -10.42538814	      2.68531680	     -5.68809131	    -18.68586801	     16.59241178	     -1.24195402	      1.80748466	     24.84365695	      2.95574543	     -0.88373177	    -11.76711212	     -1.56235587	     -5.41687558	      1.78768241	     -0.63788250	      3.36632325	      8.02341031
      0.94533333	     -0.32766041	      0.51460440	     -0.73473225	     -0.13386894	      0.97371196	      0.30450193	    -10.11979522	      2.45875624	     -5.60781115	    -19.87926467	     16.36841106	     -1.38335398	      1.89945844	     24.75988333	      3.18908341	     -0.64165741	    -12.09554340	     -1.92177241	     -5.74191709	      1.82320086	     -0.50831830	      3.22492220	      7.99891187
      0.94950000	     -0.39551782	      0.64647126	     -0.73463552	     -0.12775982	      0.97345303	      0.30410925	     -9.75591330	      2.22518535	     -5.54311511	    -21.14146998	     16.06761659	     -1.50163652	      2.02357036	     24.70086897	      3.42542293	     -0.39923526	    -12.46755124	     -2.26695501	     -6.08100924	      1.86566731	     -0.36469977	      3.07256592	      7.95897306
      0.95366667	     -0.45257874	      0.77871378	     -0.72198146	     -0.12166901	      0.97323148	      0.30368021	     -9.36026024	      1.98316039	     -5.51078680	    -22.47160587	     15.71395996	     -1.57143258	      2.25106650	     24.64610919	      3.66884874	     -0.14117086	    -12.89279947	     -2.61081992	     -6.54047705	      1.93132393	     -0.24003098	      2.92548526	      7.91555778
      0.95783333	     -0.50438344	      0.93994565	     -0.71704629	     -0.11553746	      0.97307476	      0.30326908	     -8.93082139	      1.70356484	     -5.47649643	    -23.86350462	     15.24731826	     -1.66149535	      2.46329915	     24.56109993	      3.93092611	      0.08541317	    -13.28687438	     -2.92032786	     -6.87142217	      1.98330275	     -0.10276648	      2.73941215	      7.85707534
      0.96200000	     -0.46561919	      1.16389310	     -0.66365825	     -0.10939094	      0.97303957	      0.30269897	     -8.56173025	      1.32135216	     -5.62520337	    -25.32009482	     14.73823582	     -1.53222532	      4.01320776	     24.35804030	      4.29858564	      0.43240299	    -13.64978535	     -3.32037373	     -7.54719068	      2.29444529	     -0.09432668	      2.48226841	      7.79591159
